<svg width="38" height="35" viewBox="0 0 38 35" fill="none" xmlns="http://www.w3.org/2000/svg">
<path fill-rule="evenodd" clip-rule="evenodd" d="M7.859 7.46757C4.89262 10.0131 3.10083 13.3095 3.10083 16.4251V19.9709C4.75757 18.6037 6.97 17.7688 9.4001 17.7688H9.7501C12.0421 17.7688 13.9001 19.4332 13.9001 21.4865V30.7135C13.9001 32.7668 12.0421 34.4313 9.7501 34.4313H9.4001C4.26385 34.4313 0.100098 30.7012 0.100098 26.1C0.100098 26.0647 0.100338 26.0295 0.100828 25.9943V16.4251C0.100828 12.4162 2.36985 8.45639 5.7838 5.52675C9.2085 2.58804 13.9171 0.568848 19.0008 0.568848C24.0845 0.568848 28.7932 2.58804 32.2178 5.52675C35.6318 8.45639 37.9008 12.4162 37.9008 16.4251V26.0611L37.9009 26.1C37.9009 30.7012 33.7372 34.4313 28.6009 34.4313H28.2509C25.959 34.4313 24.1009 32.7668 24.1009 30.7135V21.4865C24.1009 19.4332 25.959 17.7688 28.2509 17.7688H28.6009C31.0313 17.7688 33.244 18.6039 34.9008 19.9714V16.4251C34.9008 13.3095 33.109 10.0131 30.1426 7.46757C27.1869 4.93117 23.1955 3.25635 19.0008 3.25635C14.8062 3.25635 10.8148 4.93117 7.859 7.46757ZM3.1001 26.1001C3.10016 29.217 5.9207 31.7438 9.4001 31.7438H9.7501C10.3852 31.7438 10.9001 31.2825 10.9001 30.7135V21.4865C10.9001 20.9175 10.3852 20.4563 9.7501 20.4563H9.4001C5.9531 20.4563 3.15273 22.9362 3.10083 26.013L3.1001 26.1001ZM34.9008 26.1001V26.068C34.8816 22.9658 32.0684 20.4563 28.6009 20.4563H28.2509C27.6158 20.4563 27.1009 20.9175 27.1009 21.4865V30.7135C27.1009 31.2825 27.6158 31.7438 28.2509 31.7438H28.6009C32.0803 31.7438 34.9008 29.217 34.9008 26.1001Z" fill="#1D1C1D"/>
</svg>
